<?xml version="1.0" ?><!DOCTYPE svg  PUBLIC '-//W3C//DTD SVG 1.1//EN'  'http://www.w3.org/Graphics/SVG/1.1/DTD/svg11.dtd'><svg height="100%" style="fill-rule:evenodd;clip-rule:evenodd;stroke-linejoin:round;stroke-miterlimit:2;" version="1.1" viewBox="0 0 32 32" width="100%" xml:space="preserve" xmlns="http://www.w3.org/2000/svg" xmlns:serif="http://www.serif.com/" xmlns:xlink="http://www.w3.org/1999/xlink"><path d="M27.008,3.994c0,-1.657 -1.343,-3 -3,-3l-16.012,-0c-1.657,-0 -3,1.343 -3,3c-0,5.155 -0,18.851 -0,24.006c-0,1.657 1.343,3 3,3l16.012,0c1.657,-0 3,-1.343 3,-3l0,-24.006Zm-2,-0l0,24.006c0,0.552 -0.447,1 -1,1c0,0 -16.012,-0 -16.012,-0c-0.552,-0 -1,-0.448 -1,-1l-0,-24.006c-0,-0.552 0.448,-1 1,-1c-0,-0 16.012,-0 16.012,-0c0.553,-0 1,0.448 1,1Z"/><path d="M11,26.994l10,-0c0.552,-0 1,-0.448 1,-1c0,-0.552 -0.448,-1 -1,-1l-10,-0c-0.552,-0 -1,0.448 -1,1c0,0.552 0.448,1 1,1Z"/><path d="M11,23l10,0c0.552,0 1,-0.448 1,-1c0,-0.552 -0.448,-1 -1,-1l-10,0c-0.552,0 -1,0.448 -1,1c0,0.552 0.448,1 1,1Z"/><path d="M16,5c-3.863,-0 -7,3.137 -7,7c-0,3.863 3.137,7 7,7c3.863,-0 7,-3.137 7,-7c-0,-3.863 -3.137,-7 -7,-7Zm-2.644,2.756c-1.414,0.884 -2.356,2.455 -2.356,4.244c-0,2.76 2.24,5 5,5c1.555,-0 2.945,-0.711 3.862,-1.826l-4.94,-1.918c-0.318,-0.124 -0.552,-0.402 -0.618,-0.737l-0.948,-4.763Zm7.447,5.638l-4.645,-1.804l-0.902,-4.535c0.243,-0.036 0.491,-0.055 0.744,-0.055c2.76,-0 5,2.24 5,5c-0,0.484 -0.069,0.952 -0.197,1.394Z"/><g id="Icon"/></svg>