<svg xmlns="http://www.w3.org/2000/svg" width="580" height="580" viewBox="0 0 580 580">
  <g fill="#2563eb" stroke="#2563eb" stroke-width="3.4">
    <path d="M66.3 1.8C24.9 1.8 1.7 23.1 1.7 66.8v450.1c0 40.8 20.9 52.4 62.2 52.4h452c41.3 0 62.2-21.4 62.2-52.4V66.8c0-42.6-20.9-65-63.5-65H66.3z"/>
  </g>
  <g transform="translate(-4 0)" fill="#fff" stroke="#fff" stroke-width="10" stroke-linecap="round" stroke-linejoin="round">
    <path d="m159.3 529.4c96.4 33.3 204.6 30.7 297.2 0V26.1c-94.4 0-202.8 0-297.2 0v503.3zM191 42.9c74.7.8 163.5-.7 238.1.8 8.6 1.4 12.2 10.6 12.1 18.4-.8 75.5.8 151.1-.7 226.7 2 8.4-12.5 16-20.5 17.5-3.6 1-7.4 1.1-11.1.9 1.9 20.2-2 44.6-20.9 55.8-22.2 13.3-56.8 1.8-62.9-24.4-1.9-10.5-2.6-21.1-2.7-31.8h-27.5c1.5 19.6-1.3 43-18.8 54.9-22.2 15.2-58.6 4-65-23-2-10.5-2.3-21.1-2.7-31.8-10 1.3-30.1-.9-32.5-12.4-2.4-12.8.6-25.8-.7-38.7.4-68-1.3-136.1 1.1-204.1 2.3-5.8 8.7-8.8 14.7-8.8z"/>
    <path d="m309.8 72.3c-11.3 0-21.1 4.1-29.5 12.3-8.4 8.1-12.6 18-12.6 29.8 0 11.7 4.2 21.7 12.6 29.8 8.4 8.2 18.2 12.2 29.5 12.2.4 0 .8-.02 1.2-.03.4.01.8.03 1.3.03 11.3 0 21.1-4.1 29.5-12.2 8.4-8.2 12.5-18.1 12.5-29.8 0-11.7-4.2-21.6-12.5-29.8-8.4-8.1-18.2-12.2-29.5-12.2-.4 0-.8.02-1.2.03-.5-.01-.9-.03-1.3-.03zm-32 93.5c-2.6 0-4.9.3-6.9.8-1.4-.1-2.7-.2-4.1-.1-9.4.2-18.6 4.3-25.1 11.1-6.4 6.8-10.1 16.2-9.9 25.6l.7 80.2.2 0v42.1a19 19 0 1 0 38 0v-42.1h76v42.1a19 19 0 1 0 38 0v-42.1l.7 0-.7-80.8c0-9.1-3.5-18.1-9.7-24.7-6.2-6.6-14.9-10.7-24-11.2-2-.5-4.2-.8-6.6-.8h-66.5z" stroke-width="1.64"/>
  </g>
</svg>
