<svg xmlns="http://www.w3.org/2000/svg" width="612" height="612" viewBox="0 0 612 612">
	<path fill="#2563eb" d="M190.7 421.9l144.1-72.9c15.3-1.2 30.2-7.4 41.9-19.1l134-134-94.7-94.7-134 134c-11.7 11.7-17.9 26.8-19.1 42.1l-72.2 144.6zM583.8 122.9c26.1-26.1 26.1-68.5 0-94.7-26.2-26.1-68.5-26.1-94.7 0l-19 19 94.7 94.7 19-19zM573.8 306c-21.1 0-38.2 17.1-38.2 38.2V535.5h-459v-459h153c21.1 0 38.2-17.1 38.2-38.2S250.6 0 229.5 0H38.2C17.1 0 0 17.1 0 38.2v535.5C0 594.9 17.1 612 38.2 612h535.5c21.1 0 38.2-17.1 38.2-38.2v-229.5c0-17.2-17.1-38.3-38.2-38.3z"/>
</svg>